<?xml version="1.0" encoding="UTF-8" standalone="no"?>
<!-- Created with Inkscape (http://www.inkscape.org/) -->

<svg
   xmlns:dc="http://purl.org/dc/elements/1.1/"
   xmlns:cc="http://creativecommons.org/ns#"
   xmlns:rdf="http://www.w3.org/1999/02/22-rdf-syntax-ns#"
   xmlns:svg="http://www.w3.org/2000/svg"
   xmlns="http://www.w3.org/2000/svg"
   xmlns:sodipodi="http://sodipodi.sourceforge.net/DTD/sodipodi-0.dtd"
   xmlns:inkscape="http://www.inkscape.org/namespaces/inkscape"
   width="512"
   height="512"
   viewBox="0 0 135.46665 135.46667"
   version="1.1"
   id="svg8"
   inkscape:version="0.92.4 (5da689c313, 2019-01-14)"
   sodipodi:docname="on-512.svg">
  <defs
     id="defs2" />
  <sodipodi:namedview
     id="base"
     pagecolor="#ffffff"
     bordercolor="#666666"
     borderopacity="1.0"
     inkscape:pageopacity="0.0"
     inkscape:pageshadow="2"
     inkscape:zoom="1"
     inkscape:cx="262.31953"
     inkscape:cy="252.84286"
     inkscape:document-units="px"
     inkscape:current-layer="layer1"
     showgrid="false"
     units="px"
     fit-margin-top="0"
     fit-margin-left="0"
     fit-margin-right="0"
     fit-margin-bottom="0"
     inkscape:window-width="1366"
     inkscape:window-height="706"
     inkscape:window-x="-8"
     inkscape:window-y="-8"
     inkscape:window-maximized="1" />
  <metadata
     id="metadata5">
    <rdf:RDF>
      <cc:Work
         rdf:about="">
        <dc:format>image/svg+xml</dc:format>
        <dc:type
           rdf:resource="http://purl.org/dc/dcmitype/StillImage" />
        <dc:title></dc:title>
      </cc:Work>
    </rdf:RDF>
  </metadata>
  <g
     inkscape:label="Layer 1"
     inkscape:groupmode="layer"
     id="layer1"
     transform="translate(-11.004809,-161.46943)">
    <g
       id="g3762"
       transform="matrix(1.7263593,0.03828355,-0.03752954,1.7610439,38.206226,182.39449)"
       inkscape:transform-center-x="12.087371"
       inkscape:transform-center-y="40.513577"
       style="stroke-width:6.50964543;stroke-miterlimit:4;stroke-dasharray:none;stroke:none">
      <path
         id="path3750"
         d="M 0,0 H 48 V 48 H 0 Z"
         inkscape:connector-curvature="0"
         style="fill:none;stroke-width:6.50964543;stroke-miterlimit:4;stroke-dasharray:none;stroke:none" />
    </g>
    <g
       style="fill:none;stroke:#000000;stroke-width:1.99999296;stroke-linecap:round;stroke-linejoin:round;stroke-miterlimit:4;stroke-dasharray:none;stroke-opacity:1"
       id="g3874"
       transform="matrix(5.6765197,0,0,5.6765197,10.643999,161.08454)">
      <path
         id="path3863"
         d="m 12,22 c 0,0 8,-4 8,-10 V 5 L 12,2 4,5 v 7 c 0,6 8,10 8,10 z"
         inkscape:connector-curvature="0"
         style="stroke-width:1.99999296;stroke-miterlimit:4;stroke-dasharray:none;stroke:#000000;stroke-opacity:1" />
    </g>
    <g
       transform="matrix(1.9272979,0,0,1.9272979,34.421754,179.41606)"
       id="g8">
      <path
         inkscape:connector-curvature="0"
         class="vi-primary"
         d="m 28.36613,34.736396 c 0.289807,0.543473 0.638256,1.065125 1.035121,1.547226 0.598706,0.726221 0.494376,1.800892 -0.232527,2.398917 -0.317765,0.261848 -0.701673,0.388682 -1.082854,0.388682 -0.491648,0 -0.979887,-0.211389 -1.316745,-0.621209 -0.541426,-0.656668 -1.016709,-1.368569 -1.414256,-2.114565 -0.02114,-0.04091 -0.514832,-0.974432 -0.857145,-2.013645 -0.523016,-1.591549 -0.56052,-3.209693 -0.595979,-4.77533 -0.02591,-1.140815 -0.05114,-2.218214 -0.26594,-3.168097 -0.293216,-1.29697 -1.012618,-2.560527 -2.136386,-3.752484 -0.645757,-0.685307 -0.613708,-1.76407 0.07092,-2.409827 0.685989,-0.645757 1.764069,-0.61439 2.409826,0.07092 1.547908,1.64201 2.55098,3.438811 2.981258,5.33926 0.290488,1.28265 0.31981,2.583711 0.349131,3.841813 0.03137,1.377433 0.06069,2.677812 0.425505,3.787942 0.248892,0.754861 0.626664,1.472899 0.630073,1.4804 z m 4.118049,-5.957264 c 0.336858,0.602798 0.758952,1.167409 1.253328,1.680197 0.654622,0.677124 0.635529,1.755886 -0.04228,2.409826 -0.675761,0.654622 -1.755205,0.636893 -2.409827,-0.0416 -0.698263,-0.723494 -1.296288,-1.525406 -1.776344,-2.383915 -1.298333,-2.319135 -1.335156,-4.338916 -1.367887,-6.120715 -0.02728,-1.496084 -0.05251,-2.909658 -0.803276,-4.583717 -0.39891,-0.890559 -1.001707,-2.235261 -2.299359,-2.850333 -1.062397,-0.50324 -2.733728,-0.621209 -3.895,0.309582 -1.369933,1.098537 -1.263557,3.148322 -1.22878,3.822037 0.06614,1.273103 0.505286,2.002052 1.112857,3.009897 0.424822,0.705764 0.906242,1.50563 1.286741,2.559162 1.106039,3.064449 0.746678,6.685327 -1.068534,10.761712 -0.282987,0.634847 -0.906242,1.011936 -1.558818,1.011936 -0.231163,0 -0.4671,-0.04841 -0.692126,-0.147972 -0.859873,-0.383908 -1.247191,-1.391071 -0.863965,-2.251626 1.444942,-3.24447 1.773616,-6.008202 0.976478,-8.216869 -0.266622,-0.738495 -0.623255,-1.330383 -1.000344,-1.957047 -0.6969,-1.156498 -1.487219,-2.467788 -1.597005,-4.592582 -0.154109,-2.964209 0.687353,-5.204925 2.501201,-6.659414 2.317089,-1.857489 5.430634,-1.704744 7.48792,-0.72963 2.434375,1.153771 3.4204,3.354255 3.950234,4.536666 1.035121,2.309588 1.069898,4.225721 1.100583,5.915463 0.03069,1.646102 0.05387,2.945799 0.9342,4.518937 z m 4.042768,-7.432686 c 0.205251,1.363796 0.250256,2.699634 0.14388,4.025925 -0.07569,0.938973 -0.896695,1.632463 -1.835669,1.56291 -0.938973,-0.07637 -1.6386,-0.89806 -1.562909,-1.836351 0.08592,-1.066488 0.0491,-2.140477 -0.109104,-3.191964 -0.199796,-1.340611 -0.782137,-5.24584 -4.038199,-7.890921 -1.188548,-0.966931 -3.345391,-2.115929 -5.271752,-2.355957 -2.008871,-0.248893 -3.961826,0.505286 -4.513482,0.742587 -1.269693,0.5462 -2.243443,1.291514 -2.893974,2.214804 -1.659739,2.353911 -1.230825,5.79954 -0.969658,7.171519 0.24821,1.303107 0.608252,2.136386 0.990115,3.018079 0.499149,1.153772 1.015346,2.347093 1.126495,4.280955 0.114559,2.000006 -0.246165,4.023197 -1.073989,6.013657 -0.272077,0.655304 -0.906242,1.050804 -1.574502,1.050804 -0.218207,0 -0.439824,-0.04228 -0.65394,-0.130924 -0.869419,-0.361406 -1.281286,-1.359022 -0.91988,-2.229124 0.628028,-1.509722 0.903515,-3.027626 0.818277,-4.508708 -0.07637,-1.331065 -0.401637,-2.083198 -0.85169,-3.123092 -0.418003,-0.965568 -0.89124,-2.060014 -1.210369,-3.733391 -0.425504,-2.234579 -0.792365,-6.475983 1.532225,-9.774323 1.018755,-1.445623 2.476653,-2.583711 4.332778,-3.3822132 0.962158,-0.413912 3.496772,-1.3406111 6.282325,-0.994207 2.786234,0.347086 5.513144,1.8834022 7.001727,3.0930882 4.282318,3.479725 5.011267,8.370296 5.251295,9.976847 z"
         id="path6" />
    </g>
  </g>
</svg>
