<?xml version="1.0" encoding="UTF-8" standalone="no"?>
<!-- Created with Inkscape (http://www.inkscape.org/) -->

<svg
   xmlns:dc="http://purl.org/dc/elements/1.1/"
   xmlns:cc="http://creativecommons.org/ns#"
   xmlns:rdf="http://www.w3.org/1999/02/22-rdf-syntax-ns#"
   xmlns:svg="http://www.w3.org/2000/svg"
   xmlns="http://www.w3.org/2000/svg"
   xmlns:sodipodi="http://sodipodi.sourceforge.net/DTD/sodipodi-0.dtd"
   xmlns:inkscape="http://www.inkscape.org/namespaces/inkscape"
   width="512"
   height="512"
   viewBox="0 0 135.46665 135.46667"
   version="1.1"
   id="svg8"
   inkscape:version="0.92.4 (5da689c313, 2019-01-14)"
   sodipodi:docname="red-512.svg">
  <defs
     id="defs2" />
  <sodipodi:namedview
     id="base"
     pagecolor="#ffffff"
     bordercolor="#666666"
     borderopacity="1.0"
     inkscape:pageopacity="0.0"
     inkscape:pageshadow="2"
     inkscape:zoom="1"
     inkscape:cx="195.90702"
     inkscape:cy="252.84286"
     inkscape:document-units="px"
     inkscape:current-layer="layer1"
     showgrid="false"
     units="px"
     fit-margin-top="0"
     fit-margin-left="0"
     fit-margin-right="0"
     fit-margin-bottom="0"
     inkscape:window-width="1366"
     inkscape:window-height="706"
     inkscape:window-x="-8"
     inkscape:window-y="-8"
     inkscape:window-maximized="1" />
  <metadata
     id="metadata5">
    <rdf:RDF>
      <cc:Work
         rdf:about="">
        <dc:format>image/svg+xml</dc:format>
        <dc:type
           rdf:resource="http://purl.org/dc/dcmitype/StillImage" />
        <dc:title></dc:title>
      </cc:Work>
    </rdf:RDF>
  </metadata>
  <g
     inkscape:label="Layer 1"
     inkscape:groupmode="layer"
     id="layer1"
     transform="translate(-11.004809,-161.46943)">
    <g
       style="fill:none;stroke:#ff0000;stroke-width:1.99999296;stroke-linecap:round;stroke-linejoin:round;stroke-miterlimit:4;stroke-dasharray:none;stroke-opacity:1"
       id="g3874"
       transform="matrix(5.6765197,0,0,5.6765197,10.643999,161.08454)">
      <path
         id="path3863"
         d="m 12,22 c 0,0 8,-4 8,-10 V 5 L 12,2 4,5 v 7 c 0,6 8,10 8,10 z"
         inkscape:connector-curvature="0"
         style="stroke-width:1.99999296;stroke-miterlimit:4;stroke-dasharray:none;stroke:#ff0000;stroke-opacity:1" />
    </g>
    <path
       inkscape:connector-curvature="0"
       class="vi-primary"
       d="m 88.829927,246.43189 c 0.553977,1.03882 1.22002,2.03595 1.978625,2.95751 1.144419,1.38819 0.94499,3.44241 -0.444453,4.58548 -0.607438,0.50066 -1.341241,0.74297 -2.069864,0.74297 -0.939781,0 -1.873045,-0.40385 -2.516946,-1.18742 -1.034928,-1.25519 -1.943427,-2.61601 -2.703332,-4.04198 -0.04046,-0.078 -0.984096,-1.86263 -1.638429,-3.84901 -0.999737,-3.04225 -1.071426,-6.13536 -1.139207,-9.12805 -0.04985,-2.18065 -0.09775,-4.24008 -0.508318,-6.05575 -0.560478,-2.47916 -1.93561,-4.89447 -4.083679,-7.17287 -1.234361,-1.30995 -1.173097,-3.37198 0.135533,-4.60636 1.311259,-1.23431 3.371998,-1.17435 4.606359,0.13582 2.958805,3.1387 4.876174,6.57324 5.698643,10.20595 0.555277,2.45172 0.611339,4.93869 0.667329,7.34359 0.05996,2.63291 0.116026,5.11858 0.813352,7.24057 0.475735,1.44295 1.197863,2.81547 1.20438,2.82977 z m 7.871604,-11.38723 c 0.64393,1.15224 1.45073,2.23144 2.39573,3.21167 1.251299,1.29435 1.214799,3.35637 -0.0808,4.60636 -1.29171,1.25129 -3.35506,1.2174 -4.60636,-0.0795 -1.33473,-1.38292 -2.47784,-2.91575 -3.395466,-4.5568 -2.481748,-4.43304 -2.552136,-8.29383 -2.614701,-11.69969 -0.05202,-2.85976 -0.100349,-5.5618 -1.535451,-8.76176 -0.762512,-1.70225 -1.914752,-4.27266 -4.3952,-5.44838 -2.030765,-0.96195 -5.225494,-1.18743 -7.445252,0.59169 -2.618617,2.09988 -2.415276,6.01803 -2.348803,7.3058 0.126429,2.43351 0.965847,3.82691 2.127212,5.7534 0.812044,1.34903 1.732276,2.87796 2.459598,4.8918 2.114178,5.85765 1.427263,12.77896 -2.042497,20.5709 -0.540901,1.21351 -1.732269,1.9343 -2.979663,1.9343 -0.441852,0 -0.892858,-0.0925 -1.322992,-0.2832 -1.643638,-0.7338 -2.383993,-2.65899 -1.651462,-4.30394 2.761995,-6.20175 3.390254,-11.48462 1.866529,-15.70649 -0.509618,-1.4116 -1.191346,-2.54296 -1.912145,-3.74086 -1.332116,-2.21063 -2.842808,-4.71718 -3.052659,-8.77867 -0.294616,-5.66605 1.313867,-9.94919 4.781019,-12.7294 4.429091,-3.55057 10.3806,-3.25862 14.313084,-1.3947 4.653283,2.20544 6.538049,6.41163 7.550829,8.67182 1.97862,4.41477 2.0451,8.07739 2.10376,11.30733 0.0585,3.1465 0.10295,5.63087 1.7857,8.63793 z m 7.727709,-14.20754 c 0.39237,2.6069 0.47834,5.16034 0.27504,7.69557 -0.14471,1.79479 -1.71402,3.12042 -3.50886,2.98749 -1.794839,-0.14594 -3.132159,-1.71669 -2.987489,-3.51018 0.16422,-2.03862 0.0939,-4.09154 -0.20857,-6.10141 -0.38189,-2.56261 -1.49504,-10.02735 -7.718973,-15.08344 -2.271897,-1.84825 -6.394683,-4.04458 -10.076902,-4.50341 -3.839931,-0.47609 -7.572989,0.96585 -8.627474,1.41948 -2.427001,1.04409 -4.288314,2.46869 -5.5318,4.23357 -3.172572,4.49951 -2.352711,11.08575 -1.853488,13.70825 0.474434,2.49095 1.162665,4.08374 1.892595,5.76908 0.954114,2.20543 1.940819,4.48643 2.153285,8.18301 0.218975,3.823 -0.470534,7.69029 -2.052922,11.49501 -0.520094,1.25259 -1.732276,2.00864 -3.009645,2.00864 -0.417072,0 -0.840718,-0.0809 -1.250002,-0.24997 -1.66188,-0.69066 -2.449166,-2.59779 -1.758342,-4.26095 1.200471,-2.88584 1.72706,-5.78728 1.564132,-8.61836 -0.146007,-2.54433 -0.767729,-3.98202 -1.627997,-5.96977 -0.799011,-1.84565 -1.703594,-3.93773 -2.313611,-7.13632 -0.813345,-4.27143 -1.514594,-12.37879 2.928838,-18.68357 1.947335,-2.76324 4.734096,-4.93869 8.282055,-6.46501 1.839155,-0.79123 6.684046,-2.56261 12.008603,-1.90041 5.325858,0.66321 10.538319,3.60005 13.383728,5.91241 8.185609,6.6514 9.578989,15.99972 10.037799,19.07058 z"
       id="path6"
       style="fill:#ff0000;fill-opacity:1;stroke-width:1.91148973" />
  </g>
</svg>
